<svg xmlns="http://www.w3.org/2000/svg" xmlns:xlink="http://www.w3.org/1999/xlink" width="500" zoomAndPan="magnify" viewBox="0 0 375 374.999991" height="500" preserveAspectRatio="xMidYMid meet" version="1.0"><defs><g/></defs><rect x="-37.5" width="450" fill="#ffffff" y="-37.499999" height="449.999989" fill-opacity="1"/><rect x="-37.5" width="450" fill="#ffffff" y="-37.499999" height="449.999989" fill-opacity="1"/><rect x="-37.5" width="450" fill="#2b2b2b" y="-37.499999" height="449.999989" fill-opacity="1"/><g fill="#525050" fill-opacity="1"><g transform="translate(177.494754, 245.708363)"><g><path d="M 71.5625 -121.875 C 78.769531 -121.875 84.960938 -120.914062 90.140625 -119 C 95.316406 -117.082031 100.039062 -114.382812 104.3125 -110.90625 C 105.550781 -109.882812 106.675781 -109.375 107.6875 -109.375 C 108.8125 -109.375 109.710938 -110.191406 110.390625 -111.828125 C 111.066406 -113.460938 111.570312 -116.023438 111.90625 -119.515625 L 115.796875 -119.515625 C 115.347656 -111.523438 115.125 -97.457031 115.125 -77.3125 L 111.234375 -77.3125 C 110.453125 -86.195312 108.988281 -93.226562 106.84375 -98.40625 C 104.707031 -103.582031 100.992188 -107.972656 95.703125 -111.578125 C 93.335938 -113.148438 90.609375 -114.382812 87.515625 -115.28125 C 84.421875 -116.1875 81.359375 -116.640625 78.328125 -116.640625 C 70.222656 -116.640625 63.664062 -113.796875 58.65625 -108.109375 C 53.644531 -102.429688 50.097656 -95.257812 48.015625 -86.59375 C 45.941406 -77.925781 44.90625 -68.867188 44.90625 -59.421875 C 44.90625 -39.835938 47.296875 -25.207031 52.078125 -15.53125 C 56.859375 -5.851562 63.523438 -1.015625 72.078125 -1.015625 C 75.566406 -1.015625 78.320312 -1.6875 80.34375 -3.03125 C 82.707031 -4.71875 83.890625 -7.535156 83.890625 -11.484375 L 83.890625 -28.359375 C 83.890625 -33.984375 83.4375 -38.117188 82.53125 -40.765625 C 81.632812 -43.410156 80.03125 -45.207031 77.71875 -46.15625 C 75.414062 -47.113281 71.789062 -47.707031 66.84375 -47.9375 L 66.84375 -51.3125 C 74.5 -50.976562 85.242188 -50.8125 99.078125 -50.8125 C 110.671875 -50.8125 119.335938 -50.976562 125.078125 -51.3125 L 125.078125 -47.9375 C 123.054688 -47.707031 121.566406 -47.253906 120.609375 -46.578125 C 119.648438 -45.910156 119 -44.617188 118.65625 -42.703125 C 118.320312 -40.796875 118.15625 -37.703125 118.15625 -33.421875 L 118.15625 0 L 114.78125 0 C 114.664062 -2.363281 114.15625 -4.554688 113.25 -6.578125 C 112.351562 -8.609375 111.117188 -9.625 109.546875 -9.625 C 107.179688 -9.625 103.359375 -8.328125 98.078125 -5.734375 C 86.816406 -0.335938 77.304688 2.359375 69.546875 2.359375 C 48.609375 2.359375 32.796875 -2.925781 22.109375 -13.5 C 11.421875 -24.082031 6.078125 -39.160156 6.078125 -58.734375 C 6.078125 -71.117188 8.859375 -82.09375 14.421875 -91.65625 C 19.992188 -101.21875 27.734375 -108.644531 37.640625 -113.9375 C 47.546875 -119.226562 58.851562 -121.875 71.5625 -121.875 Z M 71.5625 -121.875 "/></g></g></g><g fill="#846d62" fill-opacity="1"><g transform="translate(87.213861, 246.200502)"><g><path d="M 60.9375 -119.515625 C 84.226562 -119.515625 101.671875 -114.53125 113.265625 -104.5625 C 124.859375 -94.601562 130.65625 -80.117188 130.65625 -61.109375 C 130.65625 -48.835938 127.8125 -38.113281 122.125 -28.9375 C 116.4375 -19.769531 108.25 -12.65625 97.5625 -7.59375 C 86.875 -2.53125 74.160156 0 59.421875 0 L 48.953125 -0.171875 C 42.203125 -0.390625 37.25 -0.5 34.09375 -0.5 C 20.925781 -0.5 11.132812 -0.332031 4.71875 0 L 4.71875 -3.375 C 8.320312 -3.601562 10.9375 -4.050781 12.5625 -4.71875 C 14.195312 -5.394531 15.296875 -6.691406 15.859375 -8.609375 C 16.421875 -10.523438 16.703125 -13.617188 16.703125 -17.890625 L 16.703125 -101.609375 C 16.703125 -105.890625 16.394531 -108.984375 15.78125 -110.890625 C 15.164062 -112.804688 14.066406 -114.101562 12.484375 -114.78125 C 10.910156 -115.457031 8.320312 -115.90625 4.71875 -116.125 L 4.71875 -119.515625 C 9.894531 -119.171875 17.550781 -119 27.6875 -119 L 33.765625 -119 L 41.1875 -119.171875 C 50.632812 -119.398438 57.21875 -119.515625 60.9375 -119.515625 Z M 63.46875 -116.46875 C 59.976562 -116.46875 57.359375 -116.070312 55.609375 -115.28125 C 53.867188 -114.5 52.660156 -113.09375 51.984375 -111.0625 C 51.316406 -109.039062 50.984375 -106.003906 50.984375 -101.953125 L 50.984375 -17.5625 C 50.984375 -13.507812 51.316406 -10.46875 51.984375 -8.4375 C 52.660156 -6.414062 53.867188 -5.007812 55.609375 -4.21875 C 57.359375 -3.425781 60.035156 -3.03125 63.640625 -3.03125 C 74.773438 -3.03125 82.816406 -7.84375 87.765625 -17.46875 C 92.722656 -27.09375 95.203125 -41.410156 95.203125 -60.421875 C 95.203125 -79.441406 92.640625 -93.535156 87.515625 -102.703125 C 82.398438 -111.878906 74.382812 -116.46875 63.46875 -116.46875 Z M 63.46875 -116.46875 "/></g></g></g><path fill="#2b2b2b" d="M 140.472656 173.511719 L 241.167969 173.511719 L 241.167969 199.035156 L 140.472656 199.035156 L 140.472656 173.511719 " fill-opacity="1" fill-rule="nonzero"/><g fill="#ddc6a4" fill-opacity="1"><g transform="translate(151.871016, 190.869957)"><g><path d="M 3.984375 0 L 1.125 0 L 1.125 -9.265625 L 4.109375 -9.265625 C 5.003906 -9.265625 5.769531 -9.078125 6.40625 -8.703125 C 7.050781 -8.335938 7.546875 -7.8125 7.890625 -7.125 C 8.234375 -6.4375 8.40625 -5.613281 8.40625 -4.65625 C 8.40625 -3.6875 8.234375 -2.851562 7.890625 -2.15625 C 7.546875 -1.46875 7.039062 -0.9375 6.375 -0.5625 C 5.71875 -0.1875 4.921875 0 3.984375 0 Z M 2.25 -1 L 3.90625 -1 C 5.0625 -1 5.914062 -1.320312 6.46875 -1.96875 C 7.03125 -2.625 7.3125 -3.519531 7.3125 -4.65625 C 7.3125 -5.78125 7.035156 -6.664062 6.484375 -7.3125 C 5.941406 -7.957031 5.125 -8.28125 4.03125 -8.28125 L 2.25 -8.28125 Z M 2.25 -1 "/></g></g></g><g fill="#ddc6a4" fill-opacity="1"><g transform="translate(163.627704, 190.869957)"><g><path d="M 1.125 0 L 1.125 -9.265625 L 6.71875 -9.265625 L 6.71875 -8.28125 L 2.25 -8.28125 L 2.25 -5.140625 L 6.421875 -5.140625 L 6.421875 -4.140625 L 2.25 -4.140625 L 2.25 -1 L 6.796875 -1 L 6.796875 0 Z M 1.125 0 "/></g></g></g><g fill="#ddc6a4" fill-opacity="1"><g transform="translate(173.846413, 190.869957)"><g><path d="M 1.5 -9.265625 L 4.25 -1.46875 L 4.359375 -1.46875 L 7.125 -9.265625 L 8.296875 -9.265625 L 4.890625 0 L 3.734375 0 L 0.328125 -9.265625 Z M 1.5 -9.265625 "/></g></g></g><g fill="#ddc6a4" fill-opacity="1"><g transform="translate(185.060293, 190.869957)"><g/></g></g><g fill="#ddc6a4" fill-opacity="1"><g transform="translate(191.24407, 190.869957)"><g><path d="M 7.46875 -6.375 C 7.269531 -6.988281 6.945312 -7.46875 6.5 -7.8125 C 6.050781 -8.164062 5.488281 -8.34375 4.8125 -8.34375 C 4.269531 -8.34375 3.769531 -8.203125 3.3125 -7.921875 C 2.863281 -7.640625 2.503906 -7.222656 2.234375 -6.671875 C 1.972656 -6.117188 1.84375 -5.441406 1.84375 -4.640625 C 1.84375 -3.835938 1.976562 -3.160156 2.25 -2.609375 C 2.519531 -2.054688 2.882812 -1.632812 3.34375 -1.34375 C 3.800781 -1.0625 4.316406 -0.921875 4.890625 -0.921875 C 5.410156 -0.921875 5.867188 -1.03125 6.265625 -1.25 C 6.671875 -1.476562 6.988281 -1.796875 7.21875 -2.203125 C 7.457031 -2.609375 7.582031 -3.085938 7.59375 -3.640625 L 5.140625 -3.640625 L 5.140625 -4.640625 L 8.671875 -4.640625 L 8.671875 -3.640625 C 8.671875 -2.878906 8.507812 -2.210938 8.1875 -1.640625 C 7.863281 -1.078125 7.414062 -0.640625 6.84375 -0.328125 C 6.28125 -0.0234375 5.628906 0.125 4.890625 0.125 C 4.066406 0.125 3.34375 -0.0664062 2.71875 -0.453125 C 2.101562 -0.835938 1.625 -1.382812 1.28125 -2.09375 C 0.9375 -2.8125 0.765625 -3.660156 0.765625 -4.640625 C 0.765625 -5.617188 0.9375 -6.460938 1.28125 -7.171875 C 1.625 -7.878906 2.097656 -8.425781 2.703125 -8.8125 C 3.316406 -9.207031 4.019531 -9.40625 4.8125 -9.40625 C 5.46875 -9.40625 6.0625 -9.273438 6.59375 -9.015625 C 7.125 -8.765625 7.566406 -8.410156 7.921875 -7.953125 C 8.273438 -7.492188 8.507812 -6.96875 8.625 -6.375 Z M 7.46875 -6.375 "/></g></g></g><g fill="#ddc6a4" fill-opacity="1"><g transform="translate(203.308356, 190.869957)"><g><path d="M 2.25 -9.265625 L 2.25 0 L 1.125 0 L 1.125 -9.265625 Z M 2.25 -9.265625 "/></g></g></g><g fill="#ddc6a4" fill-opacity="1"><g transform="translate(209.274997, 190.869957)"><g><path d="M 7.46875 -6.375 C 7.269531 -6.988281 6.945312 -7.46875 6.5 -7.8125 C 6.050781 -8.164062 5.488281 -8.34375 4.8125 -8.34375 C 4.269531 -8.34375 3.769531 -8.203125 3.3125 -7.921875 C 2.863281 -7.640625 2.503906 -7.222656 2.234375 -6.671875 C 1.972656 -6.117188 1.84375 -5.441406 1.84375 -4.640625 C 1.84375 -3.835938 1.976562 -3.160156 2.25 -2.609375 C 2.519531 -2.054688 2.882812 -1.632812 3.34375 -1.34375 C 3.800781 -1.0625 4.316406 -0.921875 4.890625 -0.921875 C 5.410156 -0.921875 5.867188 -1.03125 6.265625 -1.25 C 6.671875 -1.476562 6.988281 -1.796875 7.21875 -2.203125 C 7.457031 -2.609375 7.582031 -3.085938 7.59375 -3.640625 L 5.140625 -3.640625 L 5.140625 -4.640625 L 8.671875 -4.640625 L 8.671875 -3.640625 C 8.671875 -2.878906 8.507812 -2.210938 8.1875 -1.640625 C 7.863281 -1.078125 7.414062 -0.640625 6.84375 -0.328125 C 6.28125 -0.0234375 5.628906 0.125 4.890625 0.125 C 4.066406 0.125 3.34375 -0.0664062 2.71875 -0.453125 C 2.101562 -0.835938 1.625 -1.382812 1.28125 -2.09375 C 0.9375 -2.8125 0.765625 -3.660156 0.765625 -4.640625 C 0.765625 -5.617188 0.9375 -6.460938 1.28125 -7.171875 C 1.625 -7.878906 2.097656 -8.425781 2.703125 -8.8125 C 3.316406 -9.207031 4.019531 -9.40625 4.8125 -9.40625 C 5.46875 -9.40625 6.0625 -9.273438 6.59375 -9.015625 C 7.125 -8.765625 7.566406 -8.410156 7.921875 -7.953125 C 8.273438 -7.492188 8.507812 -6.96875 8.625 -6.375 Z M 7.46875 -6.375 "/></g></g></g><g fill="#ddc6a4" fill-opacity="1"><g transform="translate(221.339283, 190.869957)"><g><path d="M 6.1875 -6.953125 C 6.132812 -7.410156 5.914062 -7.765625 5.53125 -8.015625 C 5.144531 -8.273438 4.671875 -8.40625 4.109375 -8.40625 C 3.492188 -8.40625 3 -8.257812 2.625 -7.96875 C 2.25 -7.675781 2.0625 -7.304688 2.0625 -6.859375 C 2.0625 -6.523438 2.160156 -6.253906 2.359375 -6.046875 C 2.566406 -5.847656 2.8125 -5.691406 3.09375 -5.578125 C 3.375 -5.472656 3.628906 -5.390625 3.859375 -5.328125 L 4.796875 -5.078125 C 5.035156 -5.003906 5.300781 -4.910156 5.59375 -4.796875 C 5.894531 -4.691406 6.179688 -4.539062 6.453125 -4.34375 C 6.734375 -4.15625 6.960938 -3.910156 7.140625 -3.609375 C 7.316406 -3.316406 7.40625 -2.953125 7.40625 -2.515625 C 7.40625 -2.015625 7.273438 -1.5625 7.015625 -1.15625 C 6.753906 -0.75 6.375 -0.425781 5.875 -0.1875 C 5.375 0.0390625 4.769531 0.15625 4.0625 0.15625 C 3.0625 0.15625 2.269531 -0.078125 1.6875 -0.546875 C 1.101562 -1.015625 0.78125 -1.628906 0.71875 -2.390625 L 1.890625 -2.390625 C 1.910156 -2.035156 2.023438 -1.742188 2.234375 -1.515625 C 2.441406 -1.296875 2.703125 -1.128906 3.015625 -1.015625 C 3.335938 -0.898438 3.6875 -0.84375 4.0625 -0.84375 C 4.488281 -0.84375 4.867188 -0.910156 5.203125 -1.046875 C 5.546875 -1.191406 5.816406 -1.390625 6.015625 -1.640625 C 6.222656 -1.898438 6.328125 -2.195312 6.328125 -2.53125 C 6.328125 -2.84375 6.238281 -3.09375 6.0625 -3.28125 C 5.882812 -3.476562 5.65625 -3.632812 5.375 -3.75 C 5.101562 -3.875 4.800781 -3.984375 4.46875 -4.078125 L 3.328125 -4.40625 C 2.609375 -4.613281 2.035156 -4.910156 1.609375 -5.296875 C 1.191406 -5.679688 0.984375 -6.1875 0.984375 -6.8125 C 0.984375 -7.332031 1.125 -7.785156 1.40625 -8.171875 C 1.6875 -8.554688 2.066406 -8.859375 2.546875 -9.078125 C 3.023438 -9.296875 3.554688 -9.40625 4.140625 -9.40625 C 4.742188 -9.40625 5.273438 -9.296875 5.734375 -9.078125 C 6.203125 -8.867188 6.570312 -8.578125 6.84375 -8.203125 C 7.125 -7.835938 7.269531 -7.421875 7.28125 -6.953125 Z M 6.1875 -6.953125 "/></g></g></g></svg>